# xmcd
#
# Track frame offsets:
#	150
#	21177
#	41359
#	61449
#	79380
#	100038
#	117695
#	132429
#	153746
#	174220
#	196370
#	211640
#	230149
#	251251
#	268651
#	288451
#
# Disc length: 4101 seconds
#
# Revision: 0
# Processed by: cddbd v1.5.1PL2 Copyright (c) Steve Scherf et al.
# Submitted via: EasyCDDAExtractor 9.0.0.1
#
DISCID=e4100310
DTITLE=Various Artist - HKG Romantic Songs
DYEAR=1900
DGENRE=
TTITLE0=If you love me
TTITLE1=Words are hard to find
TTITLE2=I need you tonight
TTITLE3=Just a fantasy
TTITLE4=Knife
TTITLE5=Smart young girl
TTITLE6=Because I love you
TTITLE7=Sweet child
TTITLE8=Love conquers all
TTITLE9=Take it on the run
TTITLE10=Love until the end of time
TTITLE11=I remember
TTITLE12=Just for you
TTITLE13=I cross my heart
TTITLE14=In love with you
TTITLE15=So near yet so far
EXTD=
EXTT0=
EXTT1=
EXTT2=
EXTT3=
EXTT4=
EXTT5=
EXTT6=
EXTT7=
EXTT8=
EXTT9=
EXTT10=
EXTT11=
EXTT12=
EXTT13=
EXTT14=
EXTT15=
PLAYORDER=
